HIERARCHY
ROOT joint_Root
{
	OFFSET 0.0 0.0 0.0
	CHANNELS 6 Xposition Yposition Zposition Zrotation Xrotation Yrotation 
	JOINT Hips
	{
		OFFSET -0.726466 93.3139 -2.00062
		CHANNELS 6 Xposition Yposition Zposition Zrotation Xrotation Yrotation 
		JOINT Spine
		{
			OFFSET 15.7357 0.0 0.0
			CHANNELS 6 Xposition Yposition Zposition Zrotation Xrotation Yrotation 
			JOINT Chest
			{
				OFFSET 8.98455 -0.406207 0.0
				CHANNELS 6 Xposition Yposition Zposition Zrotation Xrotation Yrotation 
				JOINT Neck
				{
					OFFSET 16.3773 0.0 0.0
					CHANNELS 6 Xposition Yposition Zposition Zrotation Xrotation Yrotation 
					JOINT Head
					{
						OFFSET 6.45672 0.0 0.0
						CHANNELS 6 Xposition Yposition Zposition Zrotation Xrotation Yrotation 
						End Site
						{
							OFFSET 0.0 0.0 0.0
						}
					}
				}
				JOINT Shoulder_L
				{
					OFFSET 12.9942 -0.242716 4.98039
					CHANNELS 6 Xposition Yposition Zposition Zrotation Xrotation Yrotation 
					JOINT UpperArm_L
					{
						OFFSET 5.34809 0.0 0.0
						CHANNELS 6 Xposition Yposition Zposition Zrotation Xrotation Yrotation 
						JOINT LowerArm_L
						{
							OFFSET 24.3286 1.87007e-05 0.0
							CHANNELS 6 Xposition Yposition Zposition Zrotation Xrotation Yrotation 
							JOINT Hand_L
							{
								OFFSET 22.2916 0.0 0.0
								CHANNELS 6 Xposition Yposition Zposition Zrotation Xrotation Yrotation 
								End Site
								{
									OFFSET 0.0 0.0 0.0
								}
							}
						}
					}
				}
				JOINT Shoulder_R
				{
					OFFSET 12.9945 -0.242716 -4.98039
					CHANNELS 6 Xposition Yposition Zposition Zrotation Xrotation Yrotation 
					JOINT UpperArm_R
					{
						OFFSET -5.34813 0.0 0.0
						CHANNELS 6 Xposition Yposition Zposition Zrotation Xrotation Yrotation 
						JOINT LowerArm_R
						{
							OFFSET -24.3289 0.000322201 0.0
							CHANNELS 6 Xposition Yposition Zposition Zrotation Xrotation Yrotation 
							JOINT Hand_R
							{
								OFFSET -22.2915 -0.000108084 0.0
								CHANNELS 6 Xposition Yposition Zposition Zrotation Xrotation Yrotation 
								End Site
								{
									OFFSET 0.0 0.0 0.0
								}
							}
						}
					}
				}
			}
		}
		JOINT UpperLeg_L
		{
			OFFSET -2.19248 -6.46944 0.0
			CHANNELS 6 Xposition Yposition Zposition Zrotation Xrotation Yrotation 
			JOINT LowerLeg_L
			{
				OFFSET 39.0811 0.0 -1.23785e-05
				CHANNELS 6 Xposition Yposition Zposition Zrotation Xrotation Yrotation 
				JOINT Foot_L
				{
					OFFSET 40.9854 0.0 -1.26872e-05
					CHANNELS 6 Xposition Yposition Zposition Zrotation Xrotation Yrotation 
					JOINT Toes_L
					{
						OFFSET 11.7543 0.0 0.0
						CHANNELS 6 Xposition Yposition Zposition Zrotation Xrotation Yrotation 
						End Site
						{
							OFFSET 0.0 0.0 0.0
						}
					}
				}
			}
		}
		JOINT UpperLeg_R
		{
			OFFSET -2.19251 6.46944 0.0
			CHANNELS 6 Xposition Yposition Zposition Zrotation Xrotation Yrotation 
			JOINT LowerLeg_R
			{
				OFFSET -39.0811 -0.00228153 -0.0401928
				CHANNELS 6 Xposition Yposition Zposition Zrotation Xrotation Yrotation 
				JOINT Foot_R
				{
					OFFSET -40.9854 0.0 0.0
					CHANNELS 6 Xposition Yposition Zposition Zrotation Xrotation Yrotation 
					JOINT Toes_R
					{
						OFFSET -11.7543 0.0 0.0
						CHANNELS 6 Xposition Yposition Zposition Zrotation Xrotation Yrotation 
						End Site
						{
							OFFSET 0.0 0.0 0.0
						}
					}
				}
			}
		}
	}
}
MOTION
Frames:	8
Frame Time:	0.0333333
0.000000 0.000000 0.000000 0.000000 0.000000 -0.000000 -7.075490 91.613600 -39.945200 89.145600 1.758590 1.525730 15.735700 0.000005 -0.000001 92.633100 80.890300 -91.161500 8.984550 -0.406207 -0.000000 10.425600 0.865439 2.862540 16.377300 -0.000001 -0.000001 6.985590 -4.184050 1.942600 6.456720 -0.000001 -0.000000 -0.050606 -5.370420 -4.155440 12.994200 -0.242716 4.980390 -88.544400 -3.863660 -69.338200 5.348090 -0.000007 -0.000001 -68.871900 33.118500 -2.611200 24.328600 0.000019 0.000005 4.892490 5.504920 -41.743600 22.291600 -0.000001 0.000005 4.786100 5.543160 -8.385220 12.994500 -0.242716 -4.980390 89.557000 1.105580 -68.168900 -5.348130 -0.000001 -0.000004 -54.779600 26.930400 -25.423100 -24.328900 0.000322 -0.000009 3.120680 3.912150 -38.638800 -22.291500 -0.000108 -0.000004 6.629030 5.537140 -8.112860 -2.192480 -6.469440 -0.000000 -178.200000 -13.057400 -23.043000 39.081100 -0.000007 -0.000012 0.038090 -0.034008 48.237700 40.985400 -0.000006 -0.000013 2.749050 -4.258620 -58.077200 11.754300 -0.000000 0.000003 -0.006381 -0.074270 -19.599800 -2.192510 6.469440 -0.000001 -178.802000 17.930000 173.269000 -39.081100 -0.002282 -0.040193 0.032188 -0.055732 27.393500 -40.985400 0.000008 0.000006 6.031780 -1.525440 -67.882500 -11.754300 -0.000006 -0.000006 -0.006445 -0.074823 -19.618600
0.000000 0.000000 0.000000 0.000000 0.000000 -0.000000 -7.132090 91.555400 -36.546100 89.146000 -0.007658 1.378210 15.735700 0.000005 -0.000001 96.910600 80.853600 -95.731000 8.984550 -0.406207 -0.000000 10.377700 2.213000 2.156990 16.377300 -0.000001 -0.000001 6.663990 -3.923580 1.793860 6.456720 -0.000001 -0.000000 -0.003369 -6.135490 -3.894000 12.994200 -0.242716 4.980390 -88.446000 -3.945380 -68.481500 5.348090 -0.000007 -0.000001 -69.456600 33.718200 -0.627375 24.328600 0.000019 0.000005 4.729790 5.665590 -39.964600 22.291600 -0.000001 0.000005 4.531810 5.540800 -8.279790 12.994500 -0.242716 -4.980390 89.712400 0.748525 -68.987900 -5.348130 -0.000001 -0.000004 -52.050100 26.829600 -29.828100 -24.328900 0.000322 -0.000009 2.869420 3.455700 -39.757300 -22.291500 -0.000108 -0.000004 6.691510 5.540650 -8.272080 -2.192480 -6.469440 -0.000000 -178.870000 -13.911800 -24.116500 39.081100 -0.000007 -0.000012 0.019037 -0.024848 37.455400 40.985400 -0.000006 -0.000013 2.509900 -4.471990 -57.373900 11.754300 -0.000000 0.000003 -0.004815 -0.059677 -19.004800 -2.192510 6.469440 -0.000001 -179.398000 16.402600 176.714000 -39.081100 -0.002282 -0.040193 0.029563 -0.055621 25.265800 -40.985400 0.000008 0.000006 5.613800 -1.242260 -69.307300 -11.754300 -0.000006 -0.000006 -0.006500 -0.075309 -19.638500
0.000000 0.000000 0.000000 0.000000 0.000000 -0.000000 -7.140430 91.038400 -33.014400 88.586500 -1.979190 1.233780 15.735700 0.000005 -0.000001 101.301000 80.704200 -100.199000 8.984550 -0.406207 -0.000000 10.446100 3.644090 1.870220 16.377300 -0.000001 -0.000001 6.169630 -3.513720 1.489320 6.456720 -0.000001 -0.000000 -0.100538 -6.605610 -3.734660 12.994200 -0.242716 4.980390 -88.412800 -3.815120 -67.390200 5.348090 -0.000007 -0.000001 -69.794400 34.141800 1.032420 24.328600 0.000019 0.000005 4.435110 5.595610 -38.500000 22.291600 -0.000001 0.000005 4.039960 5.537280 -8.119020 12.994500 -0.242716 -4.980390 89.867500 0.356535 -69.625000 -5.348130 -0.000001 -0.000004 -48.988200 26.365900 -34.310700 -24.328900 0.000322 -0.000009 2.729590 3.162070 -40.849500 -22.291500 -0.000108 -0.000004 6.796500 5.543410 -8.398800 -2.192480 -6.469440 -0.000000 -178.305000 -13.864700 -24.234900 39.081100 -0.000007 -0.000012 0.006265 -0.012938 25.836400 40.985400 -0.000006 -0.000013 2.736420 -4.486130 -57.545900 11.754300 -0.000000 0.000003 -0.004587 -0.057415 -18.912600 -2.192510 6.469440 -0.000001 -179.591000 15.103500 179.531000 -39.081100 -0.002282 -0.040193 0.029108 -0.056237 24.640700 -40.985400 0.000008 0.000006 5.261700 -0.627929 -71.549900 -11.754300 -0.000006 -0.000006 -0.005538 -0.066582 -19.282500
0.000000 0.000000 0.000000 0.000000 0.000000 -0.000000 -7.065920 90.180500 -29.245800 87.647100 -4.213670 1.121620 15.735700 0.000005 -0.000001 105.593000 80.471000 -104.440000 8.984550 -0.406207 -0.000000 10.570500 5.115330 1.833020 16.377300 -0.000001 -0.000001 5.742250 -2.985310 1.165230 6.456720 -0.000001 -0.000000 -0.175836 -6.787720 -3.675480 12.994200 -0.242716 4.980390 -88.403900 -3.641180 -66.309700 5.348090 -0.000007 -0.000001 -70.379800 33.851400 2.752380 24.328600 0.000019 0.000005 4.517780 5.959280 -37.274100 22.291600 -0.000001 0.000005 3.871350 5.536020 -8.062670 12.994500 -0.242716 -4.980390 89.984000 0.044186 -70.145900 -5.348130 -0.000001 -0.000004 -45.703100 25.655900 -38.780300 -24.328900 0.000322 -0.000009 2.585310 2.924860 -41.518100 -22.291500 -0.000108 -0.000004 6.871130 5.542600 -8.361640 -2.192480 -6.469440 -0.000000 -176.470000 -13.769800 -24.301700 39.081100 -0.000007 -0.000012 0.003207 -0.011688 15.344500 40.985400 -0.000006 -0.000013 0.465774 -4.525030 -57.188900 11.754300 -0.000000 0.000003 -0.004363 -0.055170 -18.821200 -2.192510 6.469440 -0.000001 -179.771000 14.218300 -177.901000 -39.081100 -0.002282 -0.040193 0.023983 -0.044380 24.974600 -40.985400 0.000008 0.000006 4.764830 0.604573 -74.203200 -11.754300 -0.000006 -0.000006 -0.005072 -0.062156 -19.102100
0.000000 0.000000 0.000000 0.000000 0.000000 -0.000000 -6.868700 89.106000 -25.223100 86.948300 -6.571420 0.972100 15.735700 0.000005 -0.000001 109.399000 80.233000 -108.319000 8.984550 -0.406207 -0.000000 10.648100 6.469210 1.556120 16.377300 -0.000001 -0.000001 5.518210 -2.408680 0.939472 6.456720 -0.000001 -0.000000 -0.116001 -6.739520 -3.672680 12.994200 -0.242716 4.980390 -88.395700 -3.513410 -65.438700 5.348090 -0.000007 -0.000001 -71.121000 32.761200 4.644820 24.328600 0.000019 0.000005 4.718120 6.420360 -36.430000 22.291600 -0.000001 0.000005 3.960910 5.532890 -7.922440 12.994500 -0.242716 -4.980390 90.080500 -0.230104 -70.710600 -5.348130 -0.000001 -0.000004 -43.161800 24.692900 -42.520400 -24.328900 0.000322 -0.000009 2.488940 2.806780 -41.607500 -22.291500 -0.000108 -0.000004 7.053760 5.545210 -8.481540 -2.192480 -6.469440 -0.000000 -175.991000 -14.989800 -23.865100 39.081100 -0.000007 -0.000012 -0.001016 0.010098 5.740660 40.985400 -0.000006 -0.000013 2.607350 -4.788870 -58.762000 11.754300 -0.000000 0.000003 -0.004761 -0.059146 -18.983100 -2.192510 6.469440 -0.000001 179.454000 13.249900 -175.441000 -39.081100 -0.002282 -0.040193 0.011024 -0.015962 25.791200 -40.985400 0.000008 0.000006 4.158170 2.072200 -76.887800 -11.754300 -0.000006 -0.000006 -0.004494 -0.056486 -18.871100
0.000000 0.000000 0.000000 0.000000 0.000000 -0.000000 -6.503120 87.926000 -20.881900 86.654900 -8.634960 0.823326 15.735700 0.000005 -0.000001 112.186000 80.034200 -111.353000 8.984550 -0.406207 -0.000000 10.702400 7.494270 0.963481 16.377300 -0.000001 -0.000001 5.583020 -1.896740 0.834414 6.456720 -0.000001 -0.000000 -0.185482 -6.549940 -3.643910 12.994200 -0.242716 4.980390 -88.406100 -3.397090 -64.845200 5.348090 -0.000007 -0.000001 -71.722000 31.014000 6.505170 24.328600 0.000019 0.000005 4.722080 6.536980 -35.963600 22.291600 -0.000001 0.000005 3.863600 5.532050 -7.885590 12.994500 -0.242716 -4.980390 90.144500 -0.421974 -71.089900 -5.348130 -0.000001 -0.000004 -41.593000 23.763300 -45.402600 -24.328900 0.000322 -0.000009 2.466740 2.808770 -41.332900 -22.291500 -0.000108 -0.000004 7.182060 5.546150 -8.525380 -2.192480 -6.469440 -0.000000 -176.453000 -17.634100 -26.026100 39.081100 -0.000007 -0.000012 -0.000624 0.010655 3.345830 40.985400 -0.000006 -0.000013 -0.163966 -5.078920 -60.128500 11.754300 -0.000000 0.000003 -0.005356 -0.064875 -19.216600 -2.192510 6.469440 -0.000001 177.931000 12.463200 -173.138000 -39.081100 -0.002282 -0.040193 -0.008701 0.023538 27.030900 -40.985400 0.000008 0.000006 3.596610 3.591680 -78.783400 -11.754300 -0.000006 -0.000006 -0.953097 -1.127580 -19.763000
0.000000 0.000000 0.000000 0.000000 0.000000 -0.000000 -5.916770 86.752800 -16.129000 86.614900 -10.339100 0.669006 15.735700 0.000005 -0.000001 114.138000 79.872700 -113.649000 8.984550 -0.406207 -0.000000 10.763500 8.236250 0.202212 16.377300 -0.000001 -0.000001 5.645050 -1.448990 0.840021 6.456720 -0.000001 -0.000000 -0.213713 -6.295360 -3.722370 12.994200 -0.242716 4.980390 -88.575600 -2.968620 -64.351100 5.348090 -0.000007 -0.000001 -71.602500 29.489000 7.818530 24.328600 0.000019 0.000005 4.742400 6.625060 -35.718400 22.291600 -0.000001 0.000005 3.894230 5.532510 -7.906060 12.994500 -0.242716 -4.980390 90.129700 -0.383042 -71.296800 -5.348130 -0.000001 -0.000004 -40.994700 22.900800 -47.103400 -24.328900 0.000322 -0.000009 2.549350 2.915100 -41.214400 -22.291500 -0.000108 -0.000004 7.253540 5.546620 -8.547390 -2.192480 -6.469440 -0.000000 -177.132000 -19.025900 -27.759200 39.081100 -0.000007 -0.000012 -0.000657 0.008593 4.367670 40.985400 -0.000006 -0.000013 -0.540495 -6.348770 -60.172000 11.754300 -0.000000 0.000003 -0.005067 -0.062123 -19.104500 -2.192510 6.469440 -0.000001 176.108000 10.949500 -171.364000 -39.081100 -0.002282 -0.040193 -0.040048 0.078253 28.986600 -40.985400 0.000008 0.000006 2.952710 4.602640 -78.446800 -11.754300 -0.000006 -0.000006 -2.793840 -3.037920 -22.946100
0.000000 0.000000 0.000000 0.000000 0.000000 -0.000000 -5.004800 85.839700 -11.104500 87.485300 -11.496700 0.103621 15.735700 0.000005 -0.000001 115.097000 79.916100 -115.241000 8.984550 -0.406207 -0.000000 10.593700 8.491380 -1.076820 16.377300 -0.000001 -0.000001 5.971080 -1.002490 0.898205 6.456720 -0.000001 -0.000000 -0.502489 -6.030350 -3.754290 12.994200 -0.242716 4.980390 -88.959400 -2.145180 -64.113100 5.348090 -0.000007 -0.000001 -70.905800 28.206400 8.412040 24.328600 0.000019 0.000005 4.914800 6.962170 -35.352300 22.291600 -0.000001 0.000005 4.157600 5.535990 -8.061340 12.994500 -0.242716 -4.980390 89.981900 0.054835 -71.691300 -5.348130 -0.000001 -0.000004 -40.970100 22.100800 -47.216900 -24.328900 0.000322 -0.000009 2.486810 2.805520 -41.596700 -22.291500 -0.000108 -0.000004 7.273590 5.545610 -8.500850 -2.192480 -6.469440 -0.000000 -178.927000 -18.352600 -34.114900 39.081100 -0.000007 -0.000012 0.082238 -0.285647 16.061300 40.985400 -0.000006 -0.000013 3.904810 -7.388460 -57.083000 11.754300 -0.000000 0.000003 -0.007060 -0.080186 -19.841200 -2.192510 6.469440 -0.000001 173.368000 9.276860 -170.555000 -39.081100 -0.002282 -0.040193 -0.068858 0.118319 31.377000 -40.985400 0.000008 0.000006 2.108790 5.572070 -76.369200 -11.754300 -0.000006 -0.000006 -2.063170 -2.071200 -26.126900
